<svg width="131" height="48" viewBox="0 0 131 48" fill="none" xmlns="http://www.w3.org/2000/svg">
<path d="M28.0059 26.543L21.4289 40.043H18.3136H7.79314L4.83458 34.1584L1.00586 26.543L7.58278 13.043H10.6982H21.4289L24.2958 18.9276L28.0059 26.543Z" fill="white"/>
<path d="M18.3142 34.1582L22.1218 26.5428L18.3142 18.9274L24.5449 26.5428L18.3142 34.1582Z" fill="black"/>
<path d="M9.66061 20.3123L10.6991 18.9277L6.89138 26.5431L10.6991 34.1585L4.81445 26.5431L9.66061 20.3123Z" fill="black"/>
<path d="M43.2871 26.7051C42.5254 26.7051 41.9264 26.4902 41.4902 26.0605C41.054 25.6243 40.8359 24.9766 40.8359 24.1172V11.4023H42.4277V24.0098C42.4277 24.459 42.5124 24.7845 42.6816 24.9863C42.8574 25.1816 43.1276 25.2793 43.4922 25.2793C43.7135 25.2793 43.9382 25.2435 44.166 25.1719L44.3027 25.2109L44.4883 26.4609C44.3711 26.5391 44.2018 26.5977 43.9805 26.6367C43.7656 26.6823 43.5345 26.7051 43.2871 26.7051ZM55.123 21.4805H47.7207C47.7663 22.7891 48.0788 23.7493 48.6582 24.3613C49.2441 24.9733 50.0449 25.2793 51.0605 25.2793C51.8288 25.2793 52.4473 25.1426 52.916 24.8691C53.3848 24.5957 53.7526 24.166 54.0195 23.5801H54.2246L55.2598 24.1953C54.9473 24.9766 54.446 25.5918 53.7559 26.041C53.0723 26.4837 52.1738 26.7051 51.0605 26.7051C50.0189 26.7051 49.1237 26.5 48.375 26.0898C47.6263 25.6797 47.0501 25.0579 46.6465 24.2246C46.2428 23.3913 46.041 22.3561 46.041 21.1191C46.041 19.8952 46.2526 18.8633 46.6758 18.0234C47.1055 17.1836 47.6882 16.5586 48.4238 16.1484C49.166 15.7318 50.0124 15.5234 50.9629 15.5234C52.3431 15.5234 53.4206 15.9141 54.1953 16.6953C54.9701 17.4701 55.3607 18.6224 55.3672 20.1523C55.3672 20.7513 55.3542 21.1549 55.3281 21.3633L55.123 21.4805ZM53.7949 20.1523C53.7689 19.0065 53.515 18.1732 53.0332 17.6523C52.5514 17.1315 51.8613 16.8711 50.9629 16.8711C50.0189 16.8711 49.2767 17.1348 48.7363 17.6621C48.2025 18.1829 47.877 19.013 47.7598 20.1523H53.7949ZM63.1602 26.5H60.9727L56.8711 15.7285H58.5898L61.9785 24.6836H62.2031L65.5625 15.7285H67.2422L63.1602 26.5ZM70.4453 13.6484C70.1068 13.6484 69.8301 13.5443 69.6152 13.3359C69.4069 13.1211 69.3027 12.8509 69.3027 12.5254C69.3027 12.1999 69.4069 11.9329 69.6152 11.7246C69.8301 11.5098 70.1068 11.4023 70.4453 11.4023C70.7839 11.4023 71.0573 11.5098 71.2656 11.7246C71.4805 11.9329 71.5879 12.1999 71.5879 12.5254C71.5879 12.8509 71.4805 13.1211 71.2656 13.3359C71.0573 13.5443 70.7839 13.6484 70.4453 13.6484ZM69.6445 26.5V15.7285H71.2363V26.5H69.6445ZM80.4062 24.791L80.9141 25.9336C80.6602 26.1875 80.3249 26.3796 79.9082 26.5098C79.498 26.64 79.0521 26.7051 78.5703 26.7051C76.513 26.7051 75.4844 25.6634 75.4844 23.5801V17.0273H73.6094V15.7188H75.4844V13.4434L77.0762 13.1797V15.7188H80.543V17.0273H77.0762V23.4238C77.0762 24.6608 77.6133 25.2793 78.6875 25.2793C79.2734 25.2793 79.778 25.1165 80.2012 24.791H80.4062ZM85.7676 26.7051C84.7064 26.7051 83.8763 26.4284 83.2773 25.875C82.6849 25.3216 82.3887 24.5306 82.3887 23.502C82.3887 22.8639 82.5189 22.3268 82.7793 21.8906C83.0462 21.4479 83.4564 21.0898 84.0098 20.8164C84.5632 20.5365 85.2858 20.3216 86.1777 20.1719C86.959 20.0417 87.5514 19.8952 87.9551 19.7324C88.3652 19.5697 88.6387 19.3874 88.7754 19.1855C88.9186 18.9837 88.9902 18.7298 88.9902 18.4238C88.9902 17.9355 88.821 17.5612 88.4824 17.3008C88.1504 17.0404 87.6133 16.9102 86.8711 16.9102C86.1745 16.9102 85.5755 17.0469 85.0742 17.3203C84.5794 17.5872 84.1237 17.9876 83.707 18.5215H83.5117L82.7305 17.418C83.1862 16.8385 83.7656 16.3796 84.4688 16.041C85.1719 15.696 85.9727 15.5234 86.8711 15.5234C88.1406 15.5234 89.0749 15.8034 89.6738 16.3633C90.2793 16.9167 90.582 17.6849 90.582 18.668V24.3809C90.582 24.9798 90.8359 25.2793 91.3438 25.2793C91.513 25.2793 91.6758 25.25 91.832 25.1914L91.9688 25.2305L92.1543 26.334C92.0371 26.4121 91.8809 26.4707 91.6855 26.5098C91.4967 26.5553 91.3014 26.5781 91.0996 26.5781C90.5072 26.5781 90.0579 26.4479 89.752 26.1875C89.4525 25.9271 89.2604 25.543 89.1758 25.0352L88.9707 25.0156C88.6647 25.582 88.2513 26.0052 87.7305 26.2852C87.2096 26.5651 86.5553 26.7051 85.7676 26.7051ZM86.1191 25.4355C86.7181 25.4355 87.2357 25.2988 87.6719 25.0254C88.1146 24.7454 88.4531 24.3548 88.6875 23.8535C88.9219 23.3522 89.0391 22.7728 89.0391 22.1152V20.748L88.8535 20.709C88.6126 20.8783 88.3197 21.0215 87.9746 21.1387C87.6296 21.2493 87.1478 21.3503 86.5293 21.4414C85.9043 21.526 85.4062 21.6562 85.0352 21.832C84.6706 22.0078 84.4102 22.2324 84.2539 22.5059C84.0977 22.7728 84.0195 23.1048 84.0195 23.502C84.0195 24.1335 84.2051 24.6152 84.5762 24.9473C84.9473 25.2728 85.4616 25.4355 86.1191 25.4355ZM99.625 24.791L100.133 25.9336C99.8789 26.1875 99.5436 26.3796 99.127 26.5098C98.7168 26.64 98.2708 26.7051 97.7891 26.7051C95.7318 26.7051 94.7031 25.6634 94.7031 23.5801V17.0273H92.8281V15.7188H94.7031V13.4434L96.2949 13.1797V15.7188H99.7617V17.0273H96.2949V23.4238C96.2949 24.6608 96.832 25.2793 97.9062 25.2793C98.4922 25.2793 98.9967 25.1165 99.4199 24.791H99.625ZM103.219 13.6484C102.88 13.6484 102.604 13.5443 102.389 13.3359C102.18 13.1211 102.076 12.8509 102.076 12.5254C102.076 12.1999 102.18 11.9329 102.389 11.7246C102.604 11.5098 102.88 11.4023 103.219 11.4023C103.557 11.4023 103.831 11.5098 104.039 11.7246C104.254 11.9329 104.361 12.1999 104.361 12.5254C104.361 12.8509 104.254 13.1211 104.039 13.3359C103.831 13.5443 103.557 13.6484 103.219 13.6484ZM102.418 26.5V15.7285H104.01V26.5H102.418ZM112.076 26.7051C111.061 26.7051 110.175 26.4902 109.42 26.0605C108.671 25.6309 108.092 24.9993 107.682 24.166C107.278 23.3262 107.076 22.3105 107.076 21.1191C107.076 19.9277 107.278 18.9121 107.682 18.0723C108.092 17.2324 108.671 16.5977 109.42 16.168C110.175 15.7383 111.061 15.5234 112.076 15.5234C113.092 15.5234 113.974 15.7383 114.723 16.168C115.478 16.5977 116.057 17.2324 116.461 18.0723C116.871 18.9121 117.076 19.9277 117.076 21.1191C117.076 22.3105 116.871 23.3262 116.461 24.166C116.057 24.9993 115.478 25.6309 114.723 26.0605C113.974 26.4902 113.092 26.7051 112.076 26.7051ZM112.076 25.2793C113.15 25.2793 113.971 24.9408 114.537 24.2637C115.11 23.5866 115.396 22.5384 115.396 21.1191C115.396 19.6934 115.11 18.6419 114.537 17.9648C113.971 17.2878 113.15 16.9492 112.076 16.9492C111.002 16.9492 110.178 17.291 109.605 17.9746C109.033 18.6517 108.746 19.6999 108.746 21.1191C108.746 22.5384 109.033 23.5866 109.605 24.2637C110.178 24.9408 111.002 25.2793 112.076 25.2793ZM120.133 26.5V15.7285H121.646V17.418L121.852 17.4668C122.21 16.8353 122.665 16.3535 123.219 16.0215C123.779 15.6895 124.459 15.5234 125.26 15.5234C126.555 15.5234 127.493 15.8555 128.072 16.5195C128.658 17.1771 128.951 18.1927 128.951 19.5664V26.5H127.359V19.6055C127.359 18.9544 127.275 18.4336 127.105 18.043C126.943 17.6458 126.686 17.3594 126.334 17.1836C125.989 17.0013 125.533 16.9102 124.967 16.9102C123.997 16.9102 123.212 17.2324 122.613 17.877C122.021 18.515 121.725 19.5469 121.725 20.9727V26.5H120.133Z" fill="white"/>
<path d="M40.3379 35.0742C40.1686 35.0742 40.0303 35.0221 39.9229 34.918C39.8187 34.8105 39.7666 34.6755 39.7666 34.5127C39.7666 34.3499 39.8187 34.2165 39.9229 34.1123C40.0303 34.0049 40.1686 33.9512 40.3379 33.9512C40.5072 33.9512 40.6439 34.0049 40.748 34.1123C40.8555 34.2165 40.9092 34.3499 40.9092 34.5127C40.9092 34.6755 40.8555 34.8105 40.748 34.918C40.6439 35.0221 40.5072 35.0742 40.3379 35.0742ZM39.9375 41.5V36.1143H40.7334V41.5H39.9375ZM42.6133 41.5V36.1143H43.3701V36.959L43.4727 36.9834C43.6517 36.6676 43.8796 36.4268 44.1562 36.2607C44.4362 36.0947 44.7764 36.0117 45.1768 36.0117C45.8245 36.0117 46.2933 36.1777 46.583 36.5098C46.876 36.8385 47.0225 37.3464 47.0225 38.0332V41.5H46.2266V38.0527C46.2266 37.7272 46.1842 37.4668 46.0996 37.2715C46.0182 37.0729 45.8896 36.9297 45.7139 36.8418C45.5413 36.7507 45.3135 36.7051 45.0303 36.7051C44.5452 36.7051 44.153 36.8662 43.8535 37.1885C43.5573 37.5075 43.4092 38.0234 43.4092 38.7363V41.5H42.6133ZM49.0391 41.5V36.7637H48.1016V36.1094H49.0391C48.9805 35.875 48.9512 35.652 48.9512 35.4404C48.9512 35.0921 49.0244 34.7992 49.1709 34.5615C49.3206 34.3206 49.5273 34.1416 49.791 34.0244C50.0547 33.9072 50.359 33.8486 50.7041 33.8486C51.2412 33.8486 51.653 33.9642 51.9395 34.1953L51.6318 34.7568L51.5293 34.7764C51.3177 34.6071 51.0426 34.5225 50.7041 34.5225C50.3883 34.5225 50.1491 34.6038 49.9863 34.7666C49.8268 34.9294 49.7471 35.1605 49.7471 35.46C49.7471 35.6455 49.7764 35.862 49.835 36.1094H51.5488V36.7637H49.835V41.5H49.0391ZM54.6982 41.6025C54.1904 41.6025 53.7477 41.4951 53.3701 41.2803C52.9958 41.0654 52.7061 40.7497 52.501 40.333C52.2992 39.9131 52.1982 39.4053 52.1982 38.8096C52.1982 38.2139 52.2992 37.7061 52.501 37.2861C52.7061 36.8662 52.9958 36.5488 53.3701 36.334C53.7477 36.1191 54.1904 36.0117 54.6982 36.0117C55.2061 36.0117 55.6471 36.1191 56.0215 36.334C56.3991 36.5488 56.6888 36.8662 56.8906 37.2861C57.0957 37.7061 57.1982 38.2139 57.1982 38.8096C57.1982 39.4053 57.0957 39.9131 56.8906 40.333C56.6888 40.7497 56.3991 41.0654 56.0215 41.2803C55.6471 41.4951 55.2061 41.6025 54.6982 41.6025ZM54.6982 40.8896C55.2354 40.8896 55.6455 40.7204 55.9287 40.3818C56.2152 40.0433 56.3584 39.5192 56.3584 38.8096C56.3584 38.0967 56.2152 37.571 55.9287 37.2324C55.6455 36.8939 55.2354 36.7246 54.6982 36.7246C54.1611 36.7246 53.7493 36.8955 53.4629 37.2373C53.1764 37.5758 53.0332 38.0999 53.0332 38.8096C53.0332 39.5192 53.1764 40.0433 53.4629 40.3818C53.7493 40.7204 54.1611 40.8896 54.6982 40.8896ZM61.4316 40.6455L61.6855 41.2168C61.5586 41.3438 61.391 41.4398 61.1826 41.5049C60.9775 41.57 60.7546 41.6025 60.5137 41.6025C59.485 41.6025 58.9707 41.0817 58.9707 40.04V36.7637H58.0332V36.1094H58.9707V34.9717L59.7666 34.8398V36.1094H61.5V36.7637H59.7666V39.9619C59.7666 40.5804 60.0352 40.8896 60.5723 40.8896C60.8652 40.8896 61.1175 40.8083 61.3291 40.6455H61.4316ZM66.9541 38.9902H63.2529C63.2757 39.6445 63.432 40.1247 63.7217 40.4307C64.0146 40.7367 64.415 40.8896 64.9229 40.8896C65.307 40.8896 65.6162 40.8213 65.8506 40.6846C66.085 40.5479 66.2689 40.333 66.4023 40.04H66.5049L67.0225 40.3477C66.8662 40.7383 66.6156 41.0459 66.2705 41.2705C65.9287 41.4919 65.4795 41.6025 64.9229 41.6025C64.402 41.6025 63.9544 41.5 63.5801 41.2949C63.2057 41.0898 62.9176 40.779 62.7158 40.3623C62.514 39.9456 62.4131 39.4281 62.4131 38.8096C62.4131 38.1976 62.5189 37.6816 62.7305 37.2617C62.9453 36.8418 63.2367 36.5293 63.6045 36.3242C63.9756 36.1159 64.3988 36.0117 64.874 36.0117C65.5641 36.0117 66.1029 36.207 66.4902 36.5977C66.8776 36.985 67.0729 37.5612 67.0762 38.3262C67.0762 38.6257 67.0697 38.8275 67.0566 38.9316L66.9541 38.9902ZM66.29 38.3262C66.277 37.7533 66.1501 37.3366 65.9092 37.0762C65.6683 36.8158 65.3232 36.6855 64.874 36.6855C64.402 36.6855 64.0309 36.8174 63.7607 37.0811C63.4938 37.3415 63.3311 37.7565 63.2725 38.3262H66.29ZM70.6553 41.6025C70.18 41.6025 69.7536 41.4951 69.376 41.2803C68.9984 41.0622 68.7005 40.7432 68.4824 40.3232C68.2643 39.9001 68.1553 39.3955 68.1553 38.8096C68.1553 38.2204 68.2643 37.7158 68.4824 37.2959C68.7005 36.8727 68.9984 36.5537 69.376 36.3389C69.7536 36.1208 70.18 36.0117 70.6553 36.0117C71.2249 36.0117 71.6774 36.1191 72.0127 36.334C72.3512 36.5488 72.5954 36.8353 72.7451 37.1934L72.2031 37.584H72.1055C71.959 37.2878 71.7702 37.0713 71.5391 36.9346C71.3112 36.7946 71.0166 36.7246 70.6553 36.7246C70.3232 36.7246 70.0319 36.8027 69.7812 36.959C69.5306 37.1152 69.3353 37.3496 69.1953 37.6621C69.0586 37.9746 68.9902 38.3571 68.9902 38.8096C68.9902 39.2588 69.0602 39.6396 69.2002 39.9521C69.3402 40.2614 69.5339 40.4958 69.7812 40.6553C70.0319 40.8115 70.3232 40.8896 70.6553 40.8896C71.0296 40.8896 71.3389 40.805 71.583 40.6357C71.8304 40.4665 72.0241 40.1995 72.1641 39.835H72.2666L72.7891 40.1426C72.6491 40.5951 72.3984 40.9515 72.0371 41.2119C71.679 41.4723 71.2184 41.6025 70.6553 41.6025ZM74.0586 41.5V33.9512H74.8545V36.8809L74.957 36.9004C75.3411 36.3079 75.8962 36.0117 76.6221 36.0117C77.2699 36.0117 77.7386 36.1777 78.0283 36.5098C78.3213 36.8385 78.4678 37.3464 78.4678 38.0332V41.5H77.6719V38.0527C77.6719 37.7272 77.6296 37.4668 77.5449 37.2715C77.4635 37.0729 77.335 36.9297 77.1592 36.8418C76.9867 36.7507 76.7588 36.7051 76.4756 36.7051C75.9873 36.7051 75.5951 36.863 75.2988 37.1787C75.0026 37.4945 74.8545 38.0137 74.8545 38.7363V41.5H74.0586Z" fill="white"/>
</svg>
